{
 "cells": [
  {
   "cell_type": "code",
   "execution_count": 6,
   "id": "4f4e3d1e",
   "metadata": {},
   "outputs": [
    {
     "name": "stdout",
     "output_type": "stream",
     "text": [
      "Width: 1920, Height: 1080, FPS: 30, duration: 1800.04825 seconds\n"
     ]
    }
   ],
   "source": [
    "import ffmpeg\n",
    "\n",
    "probe = ffmpeg.probe('input1.mp4')\n",
    "video_info = next(s for s in probe['streams'] if s['codec_type'] == 'video')\n",
    "\n",
    "width = int(video_info['width'])\n",
    "height = int(video_info['height'])\n",
    "video_info = next(s for s in probe['streams'] if s['codec_type'] == 'video')\n",
    "duration = float(video_info['duration'])\n",
    "fps = 30\n",
    "\n",
    "print(f\"Width: {width}, Height: {height}, FPS: {fps}, duration: {duration} seconds\")"
   ]
  },
  {
   "cell_type": "code",
   "execution_count": null,
   "id": "9b1a3543",
   "metadata": {},
   "outputs": [
    {
     "name": "stdout",
     "output_type": "stream",
     "text": [
      "Duration: 1800.04825 seconds\n"
     ]
    }
   ],
   "source": [
    "import ffmpeg\n",
    "\n",
    "probe = ffmpeg.probe('input1.mp4')\n",
    "\n",
    "\n",
    "print(f\"Duration: {duration} seconds\")"
   ]
  },
  {
   "cell_type": "code",
   "execution_count": null,
   "id": "dcf8da9c",
   "metadata": {},
   "outputs": [],
   "source": [
    "import cv2\n",
    "\n",
    "video = cv2.VideoCapture('video.mp4')\n",
    "\n",
    "fps = video.get(cv2.CAP_PROP_FPS)\n",
    "frame_count = int(video.get(cv2.CAP_PROP_FRAME_COUNT))\n",
    "duration = frame_count / fps\n",
    "\n",
    "video.release()\n",
    "\n",
    "print(f\"Duration: {duration} seconds\")"
   ]
  },
  {
   "cell_type": "code",
   "execution_count": 7,
   "id": "2ce3a63f",
   "metadata": {},
   "outputs": [
    {
     "name": "stderr",
     "output_type": "stream",
     "text": [
      "ffmpeg version 8.0 Copyright (c) 2000-2025 the FFmpeg developers\n",
      "  built with Apple clang version 16.0.0 (clang-1600.0.26.6)\n",
      "  configuration: --prefix=/opt/homebrew/Cellar/ffmpeg/8.0_1 --enable-shared --enable-pthreads --enable-version3 --cc=clang --host-cflags= --host-ldflags='-Wl,-ld_classic' --enable-ffplay --enable-gnutls --enable-gpl --enable-libaom --enable-libaribb24 --enable-libbluray --enable-libdav1d --enable-libharfbuzz --enable-libjxl --enable-libmp3lame --enable-libopus --enable-librav1e --enable-librist --enable-librubberband --enable-libsnappy --enable-libsrt --enable-libssh --enable-libsvtav1 --enable-libtesseract --enable-libtheora --enable-libvidstab --enable-libvmaf --enable-libvorbis --enable-libvpx --enable-libwebp --enable-libx264 --enable-libx265 --enable-libxml2 --enable-libxvid --enable-lzma --enable-libfontconfig --enable-libfreetype --enable-frei0r --enable-libass --enable-libopencore-amrnb --enable-libopencore-amrwb --enable-libopenjpeg --enable-libspeex --enable-libsoxr --enable-libzmq --enable-libzimg --disable-libjack --disable-indev=jack --enable-videotoolbox --enable-audiotoolbox --enable-neon\n",
      "  libavutil      60.  8.100 / 60.  8.100\n",
      "  libavcodec     62. 11.100 / 62. 11.100\n",
      "  libavformat    62.  3.100 / 62.  3.100\n",
      "  libavdevice    62.  1.100 / 62.  1.100\n",
      "  libavfilter    11.  4.100 / 11.  4.100\n",
      "  libswscale      9.  1.100 /  9.  1.100\n",
      "  libswresample   6.  1.100 /  6.  1.100\n",
      "Input #0, mov,mp4,m4a,3gp,3g2,mj2, from 'input1.mp4':\n",
      "  Metadata:\n",
      "    major_brand     : isom\n",
      "    minor_version   : 512\n",
      "    compatible_brands: isomiso2avc1mp41\n",
      "    encoder         : Lavf62.3.100\n",
      "  Duration: 00:30:00.05, start: 0.000000, bitrate: 1077 kb/s\n",
      "  Stream #0:0[0x1](und): Video: h264 (High) (avc1 / 0x31637661), yuv420p(tv, bt709, progressive), 1920x1080 [SAR 1:1 DAR 16:9], 943 kb/s, 23.98 fps, 23.98 tbr, 24k tbn (default)\n",
      "    Metadata:\n",
      "      handler_name    : ISO Media file produced by Google Inc.\n",
      "      vendor_id       : [0][0][0][0]\n",
      "  Stream #0:1[0x2](eng): Audio: aac (LC) (mp4a / 0x6134706D), 44100 Hz, stereo, fltp, 128 kb/s (default)\n",
      "    Metadata:\n",
      "      handler_name    : ISO Media file produced by Google Inc.\n",
      "      vendor_id       : [0][0][0][0]\n",
      "Stream mapping:\n",
      "  Stream #0:0 -> #0:0 (h264 (native) -> h264 (libx264))\n",
      "  Stream #0:1 -> #0:1 (aac (native) -> aac (native))\n",
      "Press [q] to stop, [?] for help\n",
      "[libx264 @ 0x12d0106a0] using SAR=1/1\n",
      "[libx264 @ 0x12d0106a0] using cpu capabilities: ARMv8 NEON DotProd\n",
      "[libx264 @ 0x12d0106a0] profile High, level 3.0, 4:2:0, 8-bit\n",
      "[libx264 @ 0x12d0106a0] 264 - core 165 r3222 b35605a - H.264/MPEG-4 AVC codec - Copyleft 2003-2025 - http://www.videolan.org/x264.html - options: cabac=1 ref=3 deblock=1:0:0 analyse=0x3:0x113 me=hex subme=7 psy=1 psy_rd=1.00:0.00 mixed_ref=1 me_range=16 chroma_me=1 trellis=1 8x8dct=1 cqm=0 deadzone=21,11 fast_pskip=1 chroma_qp_offset=-2 threads=11 lookahead_threads=1 sliced_threads=0 nr=0 decimate=1 interlaced=0 bluray_compat=0 constrained_intra=0 bframes=3 b_pyramid=2 b_adapt=1 b_bias=0 direct=1 weightb=1 open_gop=0 weightp=2 keyint=250 keyint_min=23 scenecut=40 intra_refresh=0 rc_lookahead=40 rc=crf mbtree=1 crf=23.0 qcomp=0.60 qpmin=0 qpmax=69 qpstep=4 ip_ratio=1.40 aq=1:1.00\n",
      "Output #0, mp4, to 'input1_360p.mp4':\n",
      "  Metadata:\n",
      "    major_brand     : isom\n",
      "    minor_version   : 512\n",
      "    compatible_brands: isomiso2avc1mp41\n",
      "    encoder         : Lavf62.3.100\n",
      "  Stream #0:0(und): Video: h264 (avc1 / 0x31637661), yuv420p(tv, bt709, progressive), 640x360 [SAR 1:1 DAR 16:9], q=2-31, 23.98 fps, 24k tbn (default)\n",
      "    Metadata:\n",
      "      encoder         : Lavc62.11.100 libx264\n",
      "      handler_name    : ISO Media file produced by Google Inc.\n",
      "      vendor_id       : [0][0][0][0]\n",
      "    Side data:\n",
      "      cpb: bitrate max/min/avg: 0/0/0 buffer size: 0 vbv_delay: N/A\n",
      "  Stream #0:1(eng): Audio: aac (LC) (mp4a / 0x6134706D), 44100 Hz, stereo, fltp, 128 kb/s (default)\n",
      "    Metadata:\n",
      "      encoder         : Lavc62.11.100 aac\n",
      "      handler_name    : ISO Media file produced by Google Inc.\n",
      "      vendor_id       : [0][0][0][0]\n",
      "frame=43030 fps=503 q=28.0 size=   76800KiB time=00:29:54.62 bitrate= 350.6kbits/s speed=  21x elapsed=0:01:25.62    \r"
     ]
    },
    {
     "name": "stdout",
     "output_type": "stream",
     "text": [
      "Video successfully converted to 360p: input1_360p.mp4\n"
     ]
    },
    {
     "name": "stderr",
     "output_type": "stream",
     "text": [
      "[out#0/mp4 @ 0x12be28b80] video:49072KiB audio:28001KiB subtitle:0KiB other streams:0KiB global headers:0KiB muxing overhead: 1.738721%\n",
      "frame=43158 fps=503 q=-1.0 Lsize=   78414KiB time=00:29:59.96 bitrate= 356.9kbits/s speed=  21x elapsed=0:01:25.82    \n",
      "[libx264 @ 0x12d0106a0] frame I:288   Avg QP:17.78  size: 41496\n",
      "[libx264 @ 0x12d0106a0] frame P:13305 Avg QP:21.58  size:  2078\n",
      "[libx264 @ 0x12d0106a0] frame B:29565 Avg QP:29.01  size:   360\n",
      "[libx264 @ 0x12d0106a0] consecutive B-frames:  5.0%  9.0%  6.3% 79.7%\n",
      "[libx264 @ 0x12d0106a0] mb I  I16..4:  3.3% 53.9% 42.8%\n",
      "[libx264 @ 0x12d0106a0] mb P  I16..4:  0.1%  0.8%  0.4%  P16..4: 13.6%  7.3%  5.5%  0.0%  0.0%    skip:72.3%\n",
      "[libx264 @ 0x12d0106a0] mb B  I16..4:  0.0%  0.1%  0.0%  B16..8: 12.5%  1.6%  0.4%  direct: 0.3%  skip:85.1%  L0:39.9% L1:52.2% BI: 7.9%\n",
      "[libx264 @ 0x12d0106a0] 8x8 transform intra:57.6% inter:62.1%\n",
      "[libx264 @ 0x12d0106a0] coded y,uvDC,uvAC intra: 86.3% 87.3% 66.7% inter: 3.9% 2.8% 0.2%\n",
      "[libx264 @ 0x12d0106a0] i16 v,h,dc,p: 26% 24%  6% 44%\n",
      "[libx264 @ 0x12d0106a0] i8 v,h,dc,ddl,ddr,vr,hd,vl,hu: 25% 21% 11%  5%  7%  7%  9%  7%  9%\n",
      "[libx264 @ 0x12d0106a0] i4 v,h,dc,ddl,ddr,vr,hd,vl,hu: 27% 22%  8%  5%  8%  8%  9%  6%  7%\n",
      "[libx264 @ 0x12d0106a0] i8c dc,h,v,p: 38% 22% 31% 10%\n",
      "[libx264 @ 0x12d0106a0] Weighted P-Frames: Y:0.3% UV:0.2%\n",
      "[libx264 @ 0x12d0106a0] ref P L0: 64.0% 17.1% 11.5%  7.4%  0.0%\n",
      "[libx264 @ 0x12d0106a0] ref B L0: 88.1%  8.5%  3.4%\n",
      "[libx264 @ 0x12d0106a0] ref B L1: 94.5%  5.5%\n",
      "[libx264 @ 0x12d0106a0] kb/s:223.32\n",
      "[aac @ 0x12be671c0] Qavg: 589.732\n"
     ]
    }
   ],
   "source": [
    "from convert_to_audio import convert_video\n",
    "\n",
    "convert_video(\"input1.mp4\", target_height=360)  # 360p"
   ]
  },
  {
   "cell_type": "code",
   "execution_count": null,
   "id": "51aacf83",
   "metadata": {},
   "outputs": [],
   "source": []
  }
 ],
 "metadata": {
  "kernelspec": {
   "display_name": "subtitle",
   "language": "python",
   "name": "python3"
  },
  "language_info": {
   "codemirror_mode": {
    "name": "ipython",
    "version": 3
   },
   "file_extension": ".py",
   "mimetype": "text/x-python",
   "name": "python",
   "nbconvert_exporter": "python",
   "pygments_lexer": "ipython3",
   "version": "3.12.12"
  }
 },
 "nbformat": 4,
 "nbformat_minor": 5
}
